# Blender 4.3.1
# www.blender.org
mtllib Minecraft Block Top Surface.mtl
o Cube
v 1.000000 -1.000000 -1.000000
v -1.000000 -1.000000 -1.000000
v 1.000000 -1.000000 1.000000
v -1.000000 -1.000000 1.000000
v 1.000000 1.000000 -1.000000
v -1.000000 1.000000 -1.000000
v 1.000000 1.000000 1.000000
v -1.000000 1.000000 1.000000
v 1.000000 -1.000000 -1.000000
v -1.000000 -1.000000 -1.000000
v 1.000000 -1.000000 1.000000
v -1.000000 -1.000000 1.000000
v 1.000000 1.000000 -1.000000
v -1.000000 1.000000 -1.000000
v 1.000000 1.000000 1.000000
v -1.000000 1.000000 1.000000
vn -1.0000 -0.0000 -0.0000
vn -0.0000 -0.0000 -1.0000
vn -0.0000 -1.0000 -0.0000
vn 1.0000 -0.0000 -0.0000
vn -0.0000 1.0000 -0.0000
vn -0.0000 -0.0000 1.0000
vt 0.625000 0.500000
vt 0.625000 0.750000
vt 0.875000 0.750000
vt 0.875000 0.500000
vt 0.375000 0.750000
vt 0.375000 1.000000
vt 0.625000 1.000000
vt 0.375000 0.000000
vt 0.375000 0.250000
vt 0.625000 0.250000
vt 0.625000 0.000000
vt 0.125000 0.500000
vt 0.125000 0.750000
vt 0.375000 0.500000
vt 0.500121 0.669312
vt 0.500121 0.338312
vt 0.747770 0.338312
vt 0.747770 0.669312
vt 0.250058 0.666667
vt 0.000000 0.666667
vt 0.000000 0.333333
vt 0.250058 0.333333
vt 0.500542 0.333333
vt 0.251146 0.333333
vt 0.251146 0.000000
vt 0.500542 0.000000
vt 0.666667 0.333333
vt 0.666667 0.666667
vt 0.333333 0.666667
vt 0.333333 0.333333
vt 0.502955 1.000000
vt 0.251809 1.000000
vt 0.251809 0.666667
vt 0.502955 0.666667
vt 0.753016 0.333021
vt 1.000664 0.333021
vt 1.000664 0.666354
vt 0.753015 0.666354
s 0
usemtl Material
f 1/1/1 3/2/1 7/3/1 5/4/1
f 4/5/2 8/6/2 7/7/2 3/2/2
f 8/8/3 6/9/3 5/10/3 7/11/3
f 6/12/4 8/13/4 4/5/4 2/14/4
f 2/14/5 4/5/5 3/2/5 1/1/5
f 6/9/6 2/14/6 1/1/6 5/10/6
f 9/15/4 13/16/4 15/17/4 11/18/4
f 12/19/6 11/20/6 15/21/6 16/22/6
f 16/23/5 15/24/5 13/25/5 14/26/5
f 14/27/1 10/28/1 12/29/1 16/30/1
f 10/31/3 9/32/3 11/33/3 12/34/3
f 14/35/2 13/36/2 9/37/2 10/38/2
