{
  "accessors": [
    {
      "bufferView": 2,
      "componentType": 5126,
      "count": 2302,
      "max": [
        514.0164184570313,
        1286.0023193359375,
        622.2908935546875
      ],
      "min": [
        -378.02392578125,
        0.0,
        -746.5253295898438
      ],
      "type": "VEC3"
    },
    {
      "bufferView": 2,
      "byteOffset": 27624,
      "componentType": 5126,
      "count": 2302,
      "max": [
        0.9999911785125732,
        0.9999891519546509,
        0.9999932050704956
      ],
      "min": [
        -0.9999911785125732,
        -0.9999356269836426,
        -0.9998931884765625
      ],
      "type": "VEC3"
    },
    {
      "bufferView": 1,
      "componentType": 5126,
      "count": 2302,
      "max": [
        0.9308074712753296,
        0.9461991190910339
      ],
      "min": [
        0.015361405909061432,
        0.09067961573600769
      ],
      "type": "VEC2"
    },
    {
      "bufferView": 0,
      "componentType": 5125,
      "count": 9816,
      "type": "SCALAR"
    },
    {
      "bufferView": 2,
      "byteOffset": 55248,
      "componentType": 5126,
      "count": 2137,
      "max": [
        703.8248291015625,
        2836.013427734375,
        -933.0913696289063
      ],
      "min": [
        -930.8609008789063,
        0.0,
        -3050.52197265625
      ],
      "type": "VEC3"
    },
    {
      "bufferView": 2,
      "byteOffset": 80892,
      "componentType": 5126,
      "count": 2137,
      "max": [
        0.9999822378158569,
        0.9998979568481445,
        0.9997888803482056
      ],
      "min": [
        -0.9995557069778442,
        -0.9992759227752686,
        -0.9997912645339966
      ],
      "type": "VEC3"
    },
    {
      "bufferView": 1,
      "byteOffset": 18416,
      "componentType": 5126,
      "count": 2137,
      "max": [
        0.912742018699646,
        0.9875749945640564
      ],
      "min": [
        -0.0011230334639549255,
        0.06984910368919373
      ],
      "type": "VEC2"
    },
    {
      "bufferView": 0,
      "byteOffset": 39264,
      "componentType": 5125,
      "count": 9816,
      "type": "SCALAR"
    },
    {
      "bufferView": 2,
      "byteOffset": 106536,
      "componentType": 5126,
      "count": 1276,
      "max": [
        369.6585693359375,
        1650.7635498046875,
        -791.680908203125
      ],
      "min": [
        -784.7216186523438,
        0.0,
        -1556.534423828125
      ],
      "type": "VEC3"
    },
    {
      "bufferView": 2,
      "byteOffset": 121848,
      "componentType": 5126,
      "count": 1276,
      "max": [
        0.99992835521698,
        0.9995155334472656,
        0.9995661973953247
      ],
      "min": [
        -0.9999918937683105,
        -0.9914969205856323,
        -0.9990163445472717
      ],
      "type": "VEC3"
    },
    {
      "bufferView": 1,
      "byteOffset": 35512,
      "componentType": 5126,
      "count": 1276,
      "max": [
        0.9276957511901855,
        0.9849701523780823
      ],
      "min": [
        0.040043897926807404,
        0.44634532928466797
      ],
      "type": "VEC2"
    },
    {
      "bufferView": 0,
      "byteOffset": 78528,
      "componentType": 5125,
      "count": 5688,
      "type": "SCALAR"
    },
    {
      "bufferView": 2,
      "byteOffset": 137160,
      "componentType": 5126,
      "count": 3123,
      "max": [
        1211.8231201171875,
        3358.43701171875,
        -2610.16015625
      ],
      "min": [
        -758.6025390625,
        0.4986801743507385,
        -4632.28515625
      ],
      "type": "VEC3"
    },
    {
      "bufferView": 2,
      "byteOffset": 174636,
      "componentType": 5126,
      "count": 3123,
      "max": [
        0.9999483823776245,
        0.9990493655204773,
        0.9999513626098633
      ],
      "min": [
        -0.9999842643737793,
        -0.9998983144760132,
        -0.9999732971191406
      ],
      "type": "VEC3"
    },
    {
      "bufferView": 1,
      "byteOffset": 45720,
      "componentType": 5126,
      "count": 3123,
      "max": [
        0.9597066640853882,
        0.9371691346168518
      ],
      "min": [
        0.01264858990907669,
        0.006324499845504761
      ],
      "type": "VEC2"
    },
    {
      "bufferView": 0,
      "byteOffset": 101280,
      "componentType": 5125,
      "count": 14568,
      "type": "SCALAR"
    },
    {
      "bufferView": 2,
      "byteOffset": 212112,
      "componentType": 5126,
      "count": 108,
      "max": [
        257.2904968261719,
        266.61328125,
        -5170.8427734375
      ],
      "min": [
        -44.898719787597656,
        -1.5265566588595902e-14,
        -5436.31396484375
      ],
      "type": "VEC3"
    },
    {
      "bufferView": 2,
      "byteOffset": 213408,
      "componentType": 5126,
      "count": 108,
      "max": [
        0.9759389758110046,
        0.999863862991333,
        0.9907586574554443
      ],
      "min": [
        -0.9916024208068848,
        0.023529909551143646,
        -0.9925680160522461
      ],
      "type": "VEC3"
    },
    {
      "bufferView": 1,
      "byteOffset": 70704,
      "componentType": 5126,
      "count": 108,
      "max": [
        0.8282093405723572,
        0.5524404644966125
      ],
      "min": [
        0.14476314187049866,
        0.18468639254570007
      ],
      "type": "VEC2"
    },
    {
      "bufferView": 0,
      "byteOffset": 159552,
      "componentType": 5125,
      "count": 426,
      "type": "SCALAR"
    },
    {
      "bufferView": 2,
      "byteOffset": 214704,
      "componentType": 5126,
      "count": 956,
      "max": [
        327.4698791503906,
        3399.505615234375,
        -4577.78271484375
      ],
      "min": [
        -641.3623657226563,
        367.5436706542969,
        -5696.51318359375
      ],
      "type": "VEC3"
    },
    {
      "bufferView": 2,
      "byteOffset": 226176,
      "componentType": 5126,
      "count": 956,
      "max": [
        0.9990724325180054,
        0.9968327283859253,
        0.9999860525131226
      ],
      "min": [
        -0.9974508285522461,
        -0.96811842918396,
        -0.9999802112579346
      ],
      "type": "VEC3"
    },
    {
      "bufferView": 1,
      "byteOffset": 71568,
      "componentType": 5126,
      "count": 956,
      "max": [
        0.8370450735092163,
        0.9813173413276672
      ],
      "min": [
        -0.0004890188574790955,
        0.02361401915550232
      ],
      "type": "VEC2"
    },
    {
      "bufferView": 0,
      "byteOffset": 161256,
      "componentType": 5125,
      "count": 4272,
      "type": "SCALAR"
    },
    {
      "bufferView": 2,
      "byteOffset": 237648,
      "componentType": 5126,
      "count": 250,
      "max": [
        177.41583251953125,
        611.5448608398438,
        88.28926086425781
      ],
      "min": [
        -57.26161575317383,
        -21.826114654541016,
        -302.65740966796875
      ],
      "type": "VEC3"
    },
    {
      "bufferView": 2,
      "byteOffset": 240648,
      "componentType": 5126,
      "count": 250,
      "max": [
        0.9840496182441711,
        0.9984610676765442,
        0.9990159869194031
      ],
      "min": [
        -0.9572768807411194,
        -0.9959538578987122,
        -0.999919056892395
      ],
      "type": "VEC3"
    },
    {
      "bufferView": 1,
      "byteOffset": 79216,
      "componentType": 5126,
      "count": 250,
      "max": [
        0.8425425887107849,
        0.3470992147922516
      ],
      "min": [
        0.08193010091781616,
        0.1731937676668167
      ],
      "type": "VEC2"
    },
    {
      "bufferView": 0,
      "byteOffset": 178344,
      "componentType": 5125,
      "count": 1068,
      "type": "SCALAR"
    }
  ],
  "asset": {
    "extras": {
      "author": "hamraj15 (https://sketchfab.com/hamraj15)",
      "license": "CC-BY-4.0 (http://creativecommons.org/licenses/by/4.0/)",
      "source": "https://sketchfab.com/3d-models/trees-no-leaves-09b609facad248479c2325bee021f1a0",
      "title": "Trees No Leaves"
    },
    "generator": "Sketchfab-12.66.0",
    "version": "2.0"
  },
  "bufferViews": [
    {
      "buffer": 0,
      "byteLength": 182616,
      "name": "floatBufferViews",
      "target": 34963
    },
    {
      "buffer": 0,
      "byteLength": 81216,
      "byteOffset": 182616,
      "byteStride": 8,
      "name": "floatBufferViews",
      "target": 34962
    },
    {
      "buffer": 0,
      "byteLength": 243648,
      "byteOffset": 263832,
      "byteStride": 12,
      "name": "floatBufferViews",
      "target": 34962
    }
  ],
  "buffers": [
    {
      "byteLength": 507480,
      "uri": "scene.bin"
    }
  ],
  "images": [
    {
      "uri": "textures/Scene_-_Root_baseColor.png"
    }
  ],
  "materials": [
    {
      "doubleSided": true,
      "name": "Scene_-_Root",
      "pbrMetallicRoughness": {
        "baseColorTexture": {
          "index": 0
        },
        "metallicFactor": 0.0,
        "roughnessFactor": 0.6
      }
    }
  ],
  "meshes": [
    {
      "name": "Joined__0",
      "primitives": [
        {
          "attributes": {
            "NORMAL": 1,
            "POSITION": 0,
            "TEXCOORD_0": 2
          },
          "indices": 3,
          "material": 0,
          "mode": 4
        }
      ]
    },
    {
      "name": "Joined.001__0",
      "primitives": [
        {
          "attributes": {
            "NORMAL": 5,
            "POSITION": 4,
            "TEXCOORD_0": 6
          },
          "indices": 7,
          "material": 0,
          "mode": 4
        }
      ]
    },
    {
      "name": "Joined.002__0",
      "primitives": [
        {
          "attributes": {
            "NORMAL": 9,
            "POSITION": 8,
            "TEXCOORD_0": 10
          },
          "indices": 11,
          "material": 0,
          "mode": 4
        }
      ]
    },
    {
      "name": "Joined.003__0",
      "primitives": [
        {
          "attributes": {
            "NORMAL": 13,
            "POSITION": 12,
            "TEXCOORD_0": 14
          },
          "indices": 15,
          "material": 0,
          "mode": 4
        }
      ]
    },
    {
      "name": "Joined.004__0",
      "primitives": [
        {
          "attributes": {
            "NORMAL": 17,
            "POSITION": 16,
            "TEXCOORD_0": 18
          },
          "indices": 19,
          "material": 0,
          "mode": 4
        }
      ]
    },
    {
      "name": "Joined.005__0",
      "primitives": [
        {
          "attributes": {
            "NORMAL": 21,
            "POSITION": 20,
            "TEXCOORD_0": 22
          },
          "indices": 23,
          "material": 0,
          "mode": 4
        }
      ]
    },
    {
      "name": "Log_LOD0__0",
      "primitives": [
        {
          "attributes": {
            "NORMAL": 25,
            "POSITION": 24,
            "TEXCOORD_0": 26
          },
          "indices": 27,
          "material": 0,
          "mode": 4
        }
      ]
    }
  ],
  "nodes": [
    {
      "children": [
        1
      ],
      "matrix": [
        1.0,
        0.0,
        0.0,
        0.0,
        0.0,
        2.220446049250313e-16,
        -1.0,
        0.0,
        0.0,
        1.0,
        2.220446049250313e-16,
        0.0,
        0.0,
        0.0,
        0.0,
        1.0
      ],
      "name": "Sketchfab_model"
    },
    {
      "children": [
        2
      ],
      "matrix": [
        1.0,
        0.0,
        0.0,
        0.0,
        0.0,
        0.0,
        1.0,
        0.0,
        0.0,
        -1.0,
        0.0,
        0.0,
        0.0,
        0.0,
        0.0,
        1.0
      ],
      "name": "0193abe701054edf88b42d58eabd4ee3.fbx"
    },
    {
      "children": [
        3,
        5,
        7,
        9,
        11,
        13,
        15
      ],
      "name": "RootNode"
    },
    {
      "children": [
        4
      ],
      "name": "Joined"
    },
    {
      "mesh": 0,
      "name": "Joined__0"
    },
    {
      "children": [
        6
      ],
      "name": "Joined.001"
    },
    {
      "mesh": 1,
      "name": "Joined.001__0"
    },
    {
      "children": [
        8
      ],
      "name": "Joined.002"
    },
    {
      "mesh": 2,
      "name": "Joined.002__0"
    },
    {
      "children": [
        10
      ],
      "name": "Joined.003"
    },
    {
      "mesh": 3,
      "name": "Joined.003__0"
    },
    {
      "children": [
        12
      ],
      "name": "Joined.004"
    },
    {
      "mesh": 4,
      "name": "Joined.004__0"
    },
    {
      "children": [
        14
      ],
      "name": "Joined.005"
    },
    {
      "mesh": 5,
      "name": "Joined.005__0"
    },
    {
      "children": [
        16
      ],
      "matrix": [
        1.0,
        0.0,
        0.0,
        0.0,
        0.0,
        1.0,
        0.0,
        0.0,
        0.0,
        0.0,
        1.0,
        0.0,
        0.0,
        0.0,
        -4400.0,
        1.0
      ],
      "name": "Log_LOD0"
    },
    {
      "mesh": 6,
      "name": "Log_LOD0__0"
    }
  ],
  "samplers": [
    {
      "magFilter": 9729,
      "minFilter": 9987,
      "wrapS": 10497,
      "wrapT": 10497
    }
  ],
  "scene": 0,
  "scenes": [
    {
      "name": "Sketchfab_Scene",
      "nodes": [
        0
      ]
    }
  ],
  "textures": [
    {
      "sampler": 0,
      "source": 0
    }
  ]
}
