# Blender 4.4.0
# www.blender.org
mtllib microbot.mtl
o Icosphere
v 0.000000 -0.921169 -0.960940
v 0.000000 0.921169 -0.960940
v 0.990107 -0.611927 0.719346
v 0.679487 0.921169 -0.679487
v 0.679487 -0.921169 -0.679487
v -0.679487 0.921169 -0.679487
v -0.378180 -0.611928 1.163938
v 0.000000 1.566774 -1.402241
v -0.679487 -0.921169 -0.679487
v 0.991534 1.566774 -0.991534
v -1.223837 -0.611922 0.000000
v 0.000000 6.744842 -0.614287
v 0.000000 -1.566774 -1.402241
v -0.991534 1.566774 -0.991534
v -0.378180 -0.611928 -1.163938
v -1.402241 1.566774 -0.000000
v 0.991534 -1.566774 -0.991534
v -0.434366 6.744842 -0.434366
v 0.990107 -0.611927 -0.719346
v -0.614287 6.744842 -0.000000
v -0.297851 7.004072 -0.297851
v 0.000000 -6.744842 -0.614287
v -0.421225 7.004072 0.000000
v 0.378180 0.611928 1.163938
v 0.000000 7.004072 -0.421225
v -0.991534 -1.566774 -0.991534
v 0.297851 7.004072 -0.297851
v -0.990107 0.611927 0.719346
v -1.402241 -1.566774 -0.000000
v 0.421225 7.004072 0.000000
v -0.434366 -6.744842 -0.434366
v 0.434366 6.744842 -0.434366
v -0.990107 0.611927 -0.719346
v 0.614287 6.744842 -0.000000
v -0.614287 -6.744842 -0.000000
v 1.402241 1.566774 -0.000000
v 0.378180 0.611928 -1.163938
v 0.434366 6.744842 0.434366
v -0.297851 -7.004072 -0.297851
v 0.991534 1.566774 0.991534
v 1.223837 0.611922 0.000000
v 0.000000 6.744842 0.614287
v -0.421225 -7.004072 0.000000
v 0.297851 7.004072 0.297851
v 0.000000 7.004072 0.421225
v 0.000000 -7.004072 -0.421225
v -0.297851 7.004072 0.297851
v 0.297851 -7.004072 -0.297851
v -0.434366 6.744842 0.434366
v -0.991534 1.566774 0.991534
v 0.359682 -0.719363 1.106965
v 0.421225 -7.004072 0.000000
v 0.000000 1.566774 1.402241
v -0.679487 0.921169 0.679487
v 1.163936 -0.719361 0.000000
v 0.000000 0.921169 0.960940
v 0.434366 -6.744842 -0.434366
v 0.614287 -6.744842 -0.000000
v -0.960940 0.921169 -0.000000
v 1.402241 -1.566774 -0.000000
v 0.679487 0.921169 0.679487
v -0.941645 -0.719361 0.684142
v 0.960940 0.921169 -0.000000
v 0.434366 -6.744842 0.434366
v 0.991534 -1.566774 0.991534
v 0.000000 -6.744842 0.614287
v -0.941645 -0.719361 -0.684142
v 0.359682 -0.719363 -1.106965
v 0.297851 -7.004072 0.297851
v 1.301326 0.000000 0.422820
v 0.000000 -7.004072 0.421225
v 1.301326 0.000000 -0.422820
v -0.297851 -7.004072 0.297851
v 0.000000 0.000000 1.368293
v -0.434366 -6.744842 0.434366
v 0.804263 0.000000 1.106972
v -0.991534 -1.566774 0.991534
v -1.301326 0.000000 0.422820
v 0.000000 -1.566774 1.402241
v -0.804263 0.000000 1.106972
v -0.679487 -0.921169 0.679487
v -0.804263 0.000000 -1.106972
v 0.000000 -0.921169 0.960940
v -1.301326 0.000000 -0.422820
v -0.960940 -0.921169 -0.000000
v 0.804263 0.000000 -1.106972
v 0.679487 -0.921169 0.679487
v 0.960940 -0.921169 -0.000000
v 0.000000 0.000000 -1.368293
v 0.941645 0.719361 0.684142
v -0.359682 0.719363 1.106965
v -1.163936 0.719361 0.000000
v -0.359682 0.719363 -1.106965
v 0.941645 0.719361 -0.684142
v 0.884760 -0.932632 0.202830
v 0.748128 -0.939208 0.543540
v 0.527214 -0.921169 -0.742560
v 0.467095 -0.934197 -0.776367
v 0.716846 -0.921169 -0.589293
v 0.748128 -0.939208 -0.543540
v 0.095513 -0.921169 -0.915035
v 0.166540 -0.921169 -0.891957
v -0.140092 -0.921169 -0.902911
v -0.281599 -0.953922 -0.866686
v -0.615110 -0.921169 -0.684141
v -0.522053 -0.921169 -0.744698
v -0.760378 -0.921169 -0.484198
v -0.831254 -0.940141 -0.344396
v -0.904706 -0.921169 -0.135760
v -0.941219 -0.921169 0.000000
v -0.904706 -0.921169 0.135760
v -0.831254 -0.940141 0.344396
v -0.760378 -0.921169 0.484198
v -0.615110 -0.921169 0.684141
v -0.522053 -0.921169 0.744698
v -0.281599 -0.953922 0.866686
v 0.884760 -0.932632 -0.202830
v 0.899764 -0.921169 -0.147690
v 0.899764 -0.921169 0.147690
v 0.095513 -0.921169 0.915035
v -0.140092 -0.921169 0.902911
v 0.166540 -0.921169 0.891957
v 0.467095 -0.934197 0.776367
v 0.527214 -0.921169 0.742560
v 0.716846 -0.921169 0.589293
v 0.615110 0.921169 0.684141
v 0.522052 0.921169 0.744698
v 0.281599 0.953922 0.866686
v -0.716846 0.921169 0.589293
v -0.748128 0.939208 0.543540
v -0.467095 0.934197 0.776367
v -0.527214 0.921169 0.742560
v -0.884760 0.932632 -0.202830
v -0.748128 0.939208 -0.543540
v -0.095513 0.921169 -0.915035
v 0.140092 0.921169 -0.902911
v 0.281599 0.953922 -0.866686
v 0.831254 0.940141 -0.344396
v 0.904706 0.921169 -0.135760
v 0.941219 0.921169 0.000000
v 0.615110 0.921169 -0.684141
v 0.760378 0.921169 -0.484198
v 0.522052 0.921169 -0.744698
v -0.166540 0.921169 -0.891956
v -0.467095 0.934197 -0.776367
v -0.716846 0.921169 -0.589293
v -0.527214 0.921169 -0.742560
v -0.899764 0.921169 0.147690
v -0.899764 0.921169 -0.147690
v -0.884760 0.932632 0.202830
v -0.166540 0.921169 0.891956
v -0.095513 0.921169 0.915035
v 0.140092 0.921169 0.902911
v 0.831254 0.940141 0.344396
v 0.760378 0.921169 0.484198
v 0.904706 0.921169 0.135760
vn 0.7002 -0.6617 0.2680
vn 0.9050 -0.3304 0.2680
vn 0.0247 -0.3304 0.9435
vn -0.8897 -0.3304 0.3151
vn -0.5746 -0.3304 -0.7488
vn 0.5346 -0.3304 -0.7779
vn 0.8026 -0.1256 0.5831
vn -0.3066 -0.1256 0.9435
vn -0.9921 -0.1256 -0.0000
vn -0.3066 -0.1256 -0.9435
vn 0.8026 -0.1256 -0.5831
vn 0.4089 0.6617 0.6284
vn -0.4713 0.6617 0.5831
vn -0.7002 0.6617 -0.2680
vn 0.0385 0.6617 -0.7488
vn 0.7240 0.6617 -0.1947
vn 0.4911 0.7947 -0.3568
vn 0.4089 0.6617 -0.6284
vn -0.1876 0.7947 -0.5773
vn -0.4713 0.6617 -0.5831
vn -0.6071 0.7947 -0.0000
vn -0.7002 0.6617 0.2680
vn -0.1876 0.7947 0.5773
vn 0.0385 0.6617 0.7488
vn 0.4911 0.7947 0.3568
vn 0.7240 0.6617 0.1947
vn 0.8897 0.3304 -0.3151
vn 0.7947 0.1876 -0.5773
vn 0.5746 0.3304 -0.7488
vn -0.0247 0.3304 -0.9435
vn -0.3035 0.1876 -0.9342
vn -0.5346 0.3304 -0.7779
vn -0.9050 0.3304 -0.2680
vn -0.9822 0.1876 -0.0000
vn -0.9050 0.3304 0.2680
vn -0.5346 0.3304 0.7779
vn -0.3035 0.1876 0.9342
vn -0.0247 0.3304 0.9435
vn 0.5746 0.3304 0.7488
vn 0.7947 0.1876 0.5773
vn 0.8897 0.3304 0.3151
vn 0.3066 0.1256 -0.9435
vn 0.3035 -0.1876 -0.9342
vn 0.0247 -0.3304 -0.9435
vn -0.8026 0.1256 -0.5831
vn -0.7947 -0.1876 -0.5773
vn -0.8897 -0.3304 -0.3151
vn -0.8026 0.1256 0.5831
vn -0.7947 -0.1876 0.5773
vn -0.5746 -0.3304 0.7488
vn 0.3066 0.1256 0.9435
vn 0.3035 -0.1876 0.9342
vn 0.5346 -0.3304 0.7779
vn 0.9921 0.1256 -0.0000
vn 0.9822 -0.1876 -0.0000
vn 0.9050 -0.3304 -0.2680
vn 0.4713 -0.6617 -0.5831
vn 0.1876 -0.7947 -0.5773
vn -0.0385 -0.6617 -0.7488
vn -0.4089 -0.6617 -0.6284
vn -0.4911 -0.7947 -0.3568
vn -0.7240 -0.6617 -0.1947
vn -0.7240 -0.6617 0.1947
vn -0.4911 -0.7947 0.3568
vn -0.4089 -0.6617 0.6284
vn 0.7002 -0.6617 -0.2680
vn 0.6071 -0.7947 -0.0000
vn -0.0385 -0.6617 0.7488
vn 0.1876 -0.7947 0.5773
vn 0.4713 -0.6617 0.5831
vn 0.3236 0.5340 -0.7812
vn -0.0000 1.0000 -0.0000
vn -0.3236 0.5340 -0.7812
vn 0.3790 -0.1392 -0.9149
vn -0.3790 -0.1392 -0.9149
vn -0.7812 0.5340 -0.3236
vn -0.9149 -0.1392 -0.3790
vn -0.7611 -0.5668 -0.3153
vn -0.3153 -0.5668 -0.7611
vn -0.0000 -1.0000 -0.0000
vn 0.3153 -0.5668 -0.7611
vn 0.7611 -0.5668 -0.3153
vn 0.9149 -0.1392 -0.3790
vn 0.9149 -0.1392 0.3790
vn 0.7611 -0.5668 0.3153
vn 0.3790 -0.1392 0.9149
vn 0.3153 -0.5668 0.7611
vn -0.3153 -0.5668 0.7611
vn -0.7611 -0.5668 0.3153
vn -0.3790 -0.1392 0.9149
vn -0.9149 -0.1392 0.3790
vn -0.3236 0.5340 0.7812
vn -0.7812 0.5340 0.3236
vn 0.3236 0.5340 0.7812
vn 0.7812 0.5340 0.3236
vn 0.7812 0.5340 -0.3236
vn 0.3236 -0.5340 -0.7812
vn -0.3236 -0.5340 -0.7812
vn 0.3790 0.1392 -0.9149
vn -0.3790 0.1392 -0.9149
vn -0.7812 -0.5340 -0.3236
vn -0.9149 0.1392 -0.3790
vn -0.7611 0.5668 -0.3153
vn -0.3153 0.5668 -0.7611
vn 0.3153 0.5668 -0.7611
vn 0.7611 0.5668 -0.3153
vn 0.9149 0.1392 -0.3790
vn 0.9149 0.1392 0.3790
vn 0.7611 0.5668 0.3153
vn 0.3790 0.1392 0.9149
vn 0.3153 0.5668 0.7611
vn -0.3153 0.5668 0.7611
vn -0.7611 0.5668 0.3153
vn -0.3790 0.1392 0.9149
vn -0.9149 0.1392 0.3790
vn -0.3236 -0.5340 0.7812
vn -0.7812 -0.5340 0.3236
vn 0.3236 -0.5340 0.7812
vn 0.7812 -0.5340 0.3236
vn 0.7812 -0.5340 -0.3236
vt 0.238664 0.738665
vt 0.209980 0.721937
vt 0.265325 0.695649
vt 0.267963 0.731909
vt 0.221438 0.656907
vt 0.090501 0.108276
vt 0.038872 0.125966
vt 0.051598 0.061285
vt 0.194240 0.109915
vt 0.149746 0.115147
vt 0.181098 0.055562
vt 0.689318 0.631830
vt 0.683057 0.572052
vt 0.740055 0.600757
vt 0.358810 0.630063
vt 0.297920 0.635267
vt 0.335092 0.582368
vt 0.288315 0.651586
vt 0.120122 0.054598
vt 0.023146 0.795893
vt 0.001700 0.746117
vt 0.061494 0.777653
vt 0.722380 0.662224
vt 0.396068 0.581404
vt 0.652664 0.724531
vt 0.689318 0.714586
vt 0.683057 0.774364
vt 0.659043 0.754516
vt 0.658220 0.745637
vt 0.031153 0.662110
vt 0.003652 0.685258
vt 0.001700 0.638667
vt 0.025058 0.642315
vt 0.024969 0.646809
vt 0.028748 0.660229
vt 0.105380 0.738911
vt 0.050036 0.712623
vt 0.078720 0.695895
vt 0.108019 0.702651
vt 0.305471 0.528691
vt 0.253842 0.511001
vt 0.281376 0.495890
vt 0.299154 0.498477
vt 0.311065 0.497108
vt 0.642912 0.813123
vt 0.672073 0.831018
vt 0.627920 0.854078
vt 0.623996 0.826763
vt 0.636160 0.818933
vt 0.370060 0.499438
vt 0.364716 0.521820
vt 0.341922 0.501798
vt 0.359743 0.501517
vt 0.332913 0.501320
vt 0.153968 0.693113
vt 0.158244 0.691088
vt 0.158244 0.721231
vt 0.134849 0.700221
vt 0.129980 0.702194
vt 0.112084 0.704182
vt 0.050036 0.680767
vt 0.053164 0.684129
vt 0.074050 0.695144
vt 0.623996 0.686849
vt 0.654458 0.674908
vt 0.643426 0.700205
vt 0.640006 0.697466
vt 0.651200 0.714458
vt 0.651752 0.786636
vt 0.656081 0.774517
vt 0.647102 0.803114
vt 0.409210 0.527052
vt 0.266568 0.575682
vt 0.216670 0.563899
vt 0.128371 0.782974
vt 0.082950 0.001700
vt 0.143840 0.006904
vt 0.027261 0.018279
vt 0.740055 0.745659
vt 0.729918 0.814096
vt 0.242230 0.618687
vt 0.729918 0.532319
vt 0.672073 0.515398
vt 0.722380 0.684191
vt 0.001700 0.073068
vt 0.318188 0.713329
vt 0.161644 0.688444
vt 0.183090 0.638667
vt 0.163596 0.749303
vt 0.185002 0.792245
vt 0.161644 0.795893
vt 0.191097 0.772450
vt 0.188692 0.774331
vt 0.184913 0.787751
vt 0.643426 0.646211
vt 0.654458 0.671508
vt 0.623996 0.659567
vt 0.640006 0.648950
vt 0.652664 0.621885
vt 0.651200 0.631958
vt 0.659043 0.591900
vt 0.658220 0.600779
vt 0.656081 0.571899
vt 0.651752 0.559780
vt 0.642912 0.533293
vt 0.647102 0.543301
vt 0.623996 0.519653
vt 0.627920 0.492338
vt 0.636160 0.527483
vt 0.126952 0.135168
vt 0.155090 0.137529
vt 0.144773 0.135450
vt 0.096096 0.139859
vt 0.117943 0.135646
vt 0.209980 0.753793
vt 0.213109 0.750431
vt 0.233994 0.739416
vt 0.084184 0.138489
vt 0.066407 0.141076
vt 0.318188 0.743472
vt 0.313913 0.741448
vt 0.294793 0.734339
vt 0.272028 0.730378
vt 0.289924 0.732366
vt 0.491411 0.005666
vt 0.497111 0.004885
vt 0.510585 0.005806
vt 0.519380 0.064355
vt 0.431639 0.058364
vt 0.450457 0.001700
vt 0.465194 0.002706
vt 0.423818 0.658832
vt 0.425295 0.667625
vt 0.421461 0.655023
vt 0.425295 0.638667
vt 0.423497 0.705740
vt 0.427639 0.694774
vt 0.426289 0.710953
vt 0.427639 0.715123
vt 0.417687 0.726804
vt 0.414226 0.734884
vt 0.416473 0.726265
vt 0.414226 0.715650
vt 0.414226 0.693338
vt 0.420098 0.704535
vt 0.414226 0.712250
vt 0.416487 0.706706
vt 0.110745 0.866866
vt 0.114143 0.879146
vt 0.112180 0.886652
vt 0.098983 0.824350
vt 0.102698 0.837780
vt 0.100876 0.832434
vt 0.091514 0.820032
vt 0.091514 0.941170
vt 0.102569 0.923405
vt 0.099354 0.935697
vt 0.414226 0.746847
vt 0.418048 0.738284
vt 0.418048 0.751261
vt 0.335338 0.685238
vt 0.327174 0.678507
vt 0.321588 0.670258
vt 0.371291 0.638667
vt 0.410826 0.697056
vt 0.348681 0.710271
vt 0.342404 0.701000
vt 0.472681 0.470829
vt 0.434244 0.468205
vt 0.829641 0.001700
vt 0.905662 0.034923
vt 0.820574 0.379107
vt 0.787270 0.364553
vt 0.348681 0.727559
vt 0.410826 0.784831
vt 0.348681 0.770422
vt 0.348681 0.758404
vt 0.350507 0.740358
vt 0.744895 0.011375
vt 0.750145 0.368792
vt 0.758060 0.393648
vt 0.783518 0.390741
vt 0.806354 0.400721
vt 0.744895 0.407738
vt 0.813192 0.417741
vt 0.800027 0.431832
vt 0.774569 0.434738
vt 0.751733 0.424758
vt 0.439824 0.487138
vt 0.466181 0.488938
vt 0.542387 0.896654
vt 0.527818 0.875876
vt 0.557188 0.859540
vt 0.562526 0.885452
vt 0.584867 0.058364
vt 0.501369 0.468205
vt 0.527818 0.492338
vt 0.615543 0.495305
vt 0.595618 0.860840
vt 0.588878 0.886344
vt 0.001700 0.202674
vt 0.060061 0.187285
vt 0.120112 0.612482
vt 0.094545 0.619224
vt 0.620597 0.879014
vt 0.606006 0.898806
vt 0.128593 0.635267
vt 0.158503 0.609249
vt 0.154918 0.633050
vt 0.187229 0.611419
vt 0.174616 0.634538
vt 0.147696 0.179905
vt 0.213270 0.184858
vt 0.131858 0.134474
vt 0.071803 0.139532
vt 0.336775 0.793681
vt 0.343268 0.779424
vt 0.371291 0.850575
vt 0.321588 0.815476
vt 0.329375 0.802527
vt 0.155805 0.799293
vt 0.177927 0.879254
vt 0.110551 0.861512
vt 0.112776 0.891189
vt 0.156348 0.961776
vt 0.104781 0.919279
vt 0.542588 0.003932
vt 0.545708 0.002592
vt 0.555462 0.001700
vt 0.516542 0.005261
vt 0.520386 0.006567
vt 0.275031 0.449682
vt 0.362666 0.457062
vt 0.346828 0.502492
vt 0.286772 0.497435
vt 0.416487 0.676570
vt 0.414226 0.671025
vt 0.420098 0.678740
vt 0.414226 0.689938
vt 0.012885 0.923289
vt 0.009169 0.936719
vt 0.001700 0.941037
vt 0.011063 0.928635
vt 0.418061 0.667625
vt 0.414226 0.651269
vt 0.418061 0.638667
vt 0.416584 0.647460
vt 0.425745 0.727141
vt 0.423497 0.718522
vt 0.426959 0.726602
vt 0.423497 0.737756
vt 0.427320 0.754133
vt 0.423497 0.745570
vt 0.427320 0.741156
vt 0.423498 0.680408
vt 0.427639 0.671025
vt 0.426289 0.675195
vt 0.427639 0.691374
vt 0.009541 0.825372
vt 0.012755 0.837664
vt 0.001700 0.819899
vt 0.022366 0.874417
vt 0.024329 0.881923
vt 0.020932 0.894203
vt 0.088114 0.881815
vt 0.065992 0.961776
vt 0.020737 0.899557
vt 0.335081 0.024485
vt 0.373472 0.027718
vt 0.216670 0.434292
vt 0.309515 0.017743
vt 0.066534 0.799293
vt 0.022963 0.869880
vt 0.014967 0.841790
vt 0.431639 0.898806
vt 0.461009 0.531603
vt 0.499439 0.530304
vt 0.519365 0.895839
vt 0.466347 0.505691
vt 0.492699 0.504800
vt 0.509828 0.492338
vt 0.524418 0.512129
vt 0.806354 0.472155
vt 0.783518 0.482135
vt 0.758060 0.479229
vt 0.744895 0.465138
vt 0.751733 0.448118
vt 0.774569 0.438138
vt 0.800027 0.441044
vt 0.813192 0.455135
vt 0.343562 0.001700
vt 0.369887 0.003917
vt 0.389585 0.002429
vt 0.402198 0.025548
vt 0.428240 0.452109
vt 0.744895 0.861501
vt 0.750145 0.504085
vt 0.787270 0.508323
vt 0.829641 0.871176
vt 0.820574 0.493769
vt 0.905662 0.837953
vt 0.596452 0.003500
vt 0.622809 0.001700
vt 0.629309 0.019809
vt 0.590871 0.022433
vt 0.446208 0.494490
vt 0.431639 0.515267
vt 0.588267 0.432274
vt 0.676008 0.426283
vt 0.657997 0.022433
vt 0.741495 0.432274
vt 0.667213 0.484832
vt 0.653738 0.485752
vt 0.648039 0.484972
vt 0.621822 0.487932
vt 0.607085 0.488938
vt 0.712090 0.488938
vt 0.702336 0.488046
vt 0.699216 0.486706
vt 0.677013 0.484071
vt 0.673170 0.485377
vt 0.929878 0.151275
vt 0.936155 0.142004
vt 0.998300 0.155219
vt 0.958765 0.213608
vt 0.909062 0.182017
vt 0.914648 0.173767
vt 0.922812 0.167037
vt 0.998300 0.067444
vt 0.936155 0.124716
vt 0.937981 0.111916
vt 0.936155 0.093870
vt 0.936155 0.081852
vt 0.916849 0.049748
vt 0.909062 0.036799
vt 0.958765 0.001700
vt 0.930742 0.072851
vt 0.924250 0.058594
s 0
usemtl Material.001
f 95/1/1 55/2/1 3/3/1 96/4/1
f 3/3/2 55/2/2 70/5/2
f 7/6/3 51/7/3 74/8/3
f 11/9/4 62/10/4 78/11/4
f 15/12/5 67/13/5 82/14/5
f 19/15/6 68/16/6 86/17/6
f 3/3/7 70/5/7 76/18/7
f 7/6/8 74/8/8 80/19/8
f 11/20/9 78/21/9 84/22/9
f 15/12/10 82/14/10 89/23/10
f 19/15/11 86/17/11 72/24/11
f 128/25/12 24/26/12 90/27/12 126/28/12 127/29/12
f 130/30/13 28/31/13 91/32/13 131/33/13 132/34/13 129/35/13
f 33/36/14 92/37/14 133/38/14 134/39/14
f 37/40/15 93/41/15 135/42/15 136/43/15 137/44/15
f 140/45/16 41/46/16 94/47/16 138/48/16 139/49/16
f 138/50/17 94/51/17 141/52/17 142/53/17
f 143/54/18 141/52/18 94/51/18 37/40/18 137/44/18
f 144/55/19 135/56/19 93/57/19 145/58/19
f 147/59/20 145/58/20 93/57/20 33/36/20 134/39/20 146/60/20
f 92/37/21 150/61/21 148/62/21 149/63/21 133/38/21
f 92/37/22 28/31/22 130/30/22 150/61/22
f 131/64/23 91/65/23 152/66/23 151/67/23
f 152/66/24 91/65/24 24/26/24 128/25/24 153/68/24
f 126/28/25 90/27/25 154/69/25 155/70/25
f 154/69/26 90/27/26 41/46/26 140/45/26 156/71/26
f 72/24/27 94/51/27 41/72/27
f 72/24/28 86/17/28 94/51/28
f 86/17/29 37/40/29 94/51/29
f 89/73/30 93/41/30 37/40/30
f 89/73/31 82/74/31 93/41/31
f 82/75/32 33/36/32 93/57/32
f 84/22/33 92/37/33 33/36/33
f 84/22/34 78/21/34 92/37/34
f 78/21/35 28/31/35 92/37/35
f 80/19/36 91/76/36 28/77/36
f 80/19/37 74/8/37 91/76/37
f 74/8/38 24/78/38 91/76/38
f 76/79/39 90/27/39 24/26/39
f 76/79/40 70/80/40 90/27/40
f 70/80/41 41/46/41 90/27/41
f 86/17/42 89/73/42 37/40/42
f 86/17/43 68/16/43 89/73/43
f 68/16/44 15/81/44 89/73/44
f 82/75/45 84/22/45 33/36/45
f 82/14/46 67/13/46 84/82/46
f 67/13/47 11/83/47 84/82/47
f 78/11/48 80/19/48 28/77/48
f 78/11/49 62/10/49 80/19/49
f 62/10/50 7/6/50 80/19/50
f 74/84/51 76/79/51 24/26/51
f 74/8/52 51/7/52 76/85/52
f 51/86/53 3/3/53 76/18/53
f 70/5/54 72/87/54 41/88/54
f 70/5/55 55/2/55 72/87/55
f 55/2/56 19/89/56 72/87/56
f 98/90/57 68/91/57 19/89/57 100/92/57 99/93/57 97/94/57
f 101/95/58 68/96/58 98/97/58 102/98/58
f 104/99/59 15/12/59 68/96/59 101/95/59 103/100/59
f 105/101/60 67/13/60 15/12/60 104/99/60 106/102/60
f 67/13/61 105/101/61 107/103/61 108/104/61
f 110/105/62 11/83/62 67/13/62 108/104/62 109/106/62
f 112/107/63 62/108/63 11/83/63 110/105/63 111/109/63
f 114/110/64 62/10/64 112/111/64 113/112/64
f 116/113/65 7/6/65 62/10/65 114/110/65 115/114/65
f 100/92/66 19/89/66 55/2/66 117/115/66
f 118/116/67 117/115/67 55/2/67 95/1/67 119/117/67
f 121/118/68 120/119/68 51/7/68 7/6/68 116/113/68
f 51/86/69 120/120/69 122/121/69 123/122/69
f 125/123/70 96/4/70 3/3/70 51/86/70 123/122/70 124/124/70
f 98/125/71 97/126/71 5/127/71 17/128/71 13/129/71 1/130/71 102/131/71
f 105/132/72 106/133/72 9/134/72 107/135/72
f 1/136/72 103/137/72 101/138/72 102/139/72
f 85/140/72 111/141/72 110/142/72 109/143/72
f 113/144/72 81/145/72 115/146/72 114/147/72
f 124/148/72 87/149/72 125/150/72
f 83/151/72 122/152/72 120/153/72 121/154/72
f 118/155/72 119/156/72 88/157/72
f 5/158/72 97/159/72 99/160/72
f 104/161/73 103/162/73 1/163/73 13/164/73 26/165/73 9/166/73 106/167/73
f 13/129/74 17/128/74 57/168/74 22/169/74
f 26/170/75 13/171/75 22/172/75 31/173/75
f 107/174/76 9/166/76 26/165/76 29/175/76 85/176/76 109/177/76 108/178/76
f 29/179/77 26/170/77 31/173/77 35/180/77
f 43/181/78 35/180/78 31/173/78 39/182/78
f 39/182/79 31/173/79 22/172/79 46/183/79
f 73/184/80 43/181/80 39/182/80 46/183/80 48/185/80 52/186/80 69/187/80 71/188/80
f 46/189/81 22/169/81 57/168/81 48/190/81
f 48/191/82 57/192/82 58/193/82 52/194/82
f 17/128/83 60/195/83 58/196/83 57/168/83
f 60/197/84 65/198/84 64/199/84 58/193/84
f 52/194/85 58/193/85 64/199/85 69/200/85
f 65/201/86 79/202/86 66/203/86 64/204/86
f 69/200/87 64/199/87 66/205/87 71/206/87
f 71/207/88 66/203/88 75/208/88 73/209/88
f 73/209/89 75/208/89 35/210/89 43/211/89
f 79/202/90 77/212/90 75/208/90 66/203/90
f 77/212/91 29/213/91 35/210/91 75/208/91
f 115/114/92 81/214/92 77/212/92 79/202/92 83/215/92 121/118/92 116/113/92
f 112/216/93 111/217/93 85/176/93 29/175/93 77/218/93 81/219/93 113/220/93
f 122/152/94 83/151/94 79/221/94 65/222/94 87/149/94 124/148/94 123/223/94
f 96/224/95 125/150/95 87/149/95 65/222/95 60/225/95 88/157/95 119/156/95 95/226/95
f 117/227/96 118/228/96 88/229/96 60/195/96 17/128/96 5/127/96 99/230/96 100/231/96
f 8/232/97 10/233/97 4/234/97 143/54/97 137/44/97 136/43/97 2/235/97
f 141/236/80 143/237/80 4/238/80 142/239/80
f 144/240/80 2/241/80 136/242/80 135/243/80
f 155/244/80 61/245/80 127/246/80 126/247/80
f 140/248/80 139/249/80 63/250/80 156/251/80
f 132/252/80 54/253/80 129/254/80
f 56/255/80 151/256/80 152/257/80 153/258/80
f 59/259/80 149/260/80 148/261/80
f 146/262/80 6/263/80 147/264/80
f 14/265/98 8/266/98 2/241/98 144/240/98 145/267/98 147/264/98 6/263/98
f 8/232/99 12/268/99 32/269/99 10/233/99
f 14/270/100 18/271/100 12/268/100 8/232/100
f 16/272/101 14/265/101 6/263/101 146/262/101 134/273/101 133/274/101 149/260/101 59/259/101
f 16/275/102 20/276/102 18/277/102 14/278/102
f 23/279/103 21/280/103 18/277/103 20/276/103
f 21/280/104 25/281/104 12/282/104 18/277/104
f 45/283/72 44/284/72 30/285/72 27/286/72 25/287/72 21/288/72 23/289/72 47/290/72
f 25/291/105 27/292/105 32/269/105 12/268/105
f 27/292/106 30/293/106 34/294/106 32/269/106
f 10/233/107 32/269/107 34/294/107 36/295/107
f 36/296/108 34/297/108 38/298/108 40/299/108
f 30/285/109 44/284/109 38/298/109 34/297/109
f 40/299/110 38/298/110 42/300/110 53/301/110
f 44/284/111 45/283/111 42/300/111 38/298/111
f 45/302/112 47/303/112 49/304/112 42/305/112
f 47/306/113 23/279/113 20/276/113 49/307/113
f 53/308/114 42/305/114 49/304/114 50/309/114
f 50/309/115 49/304/115 20/310/115 16/311/115
f 53/308/116 50/309/116 54/312/116 132/313/116 131/314/116 151/315/116 56/316/116
f 54/312/117 50/309/117 16/311/117 59/317/117 148/318/117 150/319/117 130/320/117 129/321/117
f 127/322/118 61/323/118 40/324/118 53/325/118 56/326/118 153/327/118 128/328/118
f 36/329/119 40/324/119 61/323/119 155/330/119 154/331/119 156/332/119 63/333/119
f 142/334/120 4/335/120 10/336/120 36/329/120 63/333/120 139/337/120 138/338/120
